<?xml version="1.0" encoding="UTF-8" standalone="no"?>
<svg
   xmlns:dc="http://purl.org/dc/elements/1.1/"
   xmlns:cc="http://creativecommons.org/ns#"
   xmlns:rdf="http://www.w3.org/1999/02/22-rdf-syntax-ns#"
   xmlns:svg="http://www.w3.org/2000/svg"
   xmlns="http://www.w3.org/2000/svg"
   viewBox="0 0 631.23999 125.33333"
   height="125.33333"
   width="631.23999"
   xml:space="preserve"
   id="svg2"
   version="1.1"><metadata
     id="metadata8"><rdf:RDF><cc:Work
         rdf:about=""><dc:format>image/svg+xml</dc:format><dc:type
           rdf:resource="http://purl.org/dc/dcmitype/StillImage" /></cc:Work></rdf:RDF></metadata><defs
     id="defs6" /><g
     transform="matrix(1.3333333,0,0,-1.3333333,0,125.33333)"
     id="g10"><g
       transform="scale(0.1)"
       id="g12"><path
         id="path14"
         style="fill:#58565b;fill-opacity:1;fill-rule:nonzero;stroke:none"
         d="M 1132.5,571.25 C 1132.5,255.754 878.984,0 566.25,0 253.516,0 0,255.754 0,571.25 h 1132.5" /><path
         id="path16"
         style="fill:#58565b;fill-opacity:1;fill-rule:nonzero;stroke:none"
         d="M 822.5,555 C 822.5,342.367 643.977,170 423.75,170 203.523,170 25,342.367 25,555 25,767.633 203.523,940 423.75,940 643.977,940 822.5,767.633 822.5,555" /><path
         id="path18"
         style="fill:#58565b;fill-opacity:1;fill-rule:nonzero;stroke:none"
         d="m 1411.33,369.75 c 15.32,-8.035 39.82,-16.078 64.7,-16.078 26.8,0 40.96,11.101 40.96,28.332 0,15.695 -12.25,25.266 -43.25,35.984 -42.89,15.313 -71.22,39.047 -71.22,76.95 0,44.027 37.14,77.332 97.63,77.332 29.48,0 50.53,-5.743 65.85,-13.016 l -13.02,-46.703 c -9.95,4.972 -28.71,12.25 -53.6,12.25 -25.26,0 -37.51,-11.871 -37.51,-24.883 0,-16.465 14.16,-23.742 47.85,-36.754 45.56,-16.848 66.61,-40.582 66.61,-77.336 0,-43.262 -32.92,-80.008 -103.75,-80.008 -29.47,0 -58.57,8.035 -73.12,16.078 l 11.87,47.852" /><path
         id="path20"
         style="fill:#58565b;fill-opacity:1;fill-rule:nonzero;stroke:none"
         d="m 1677.4,548.152 v -50.918 h 41.73 v -42.879 h -41.73 v -68.144 c 0,-22.582 5.74,-32.918 22.98,-32.918 8.03,0 11.86,0.379 17.22,1.527 l 0.38,-44.023 c -7.27,-2.684 -21.43,-4.977 -37.51,-4.977 -18.76,0 -34.46,6.504 -44.03,16.078 -10.72,11.098 -16.08,29.094 -16.08,55.508 v 76.949 h -24.88 v 42.879 h 24.88 v 35.223 l 57.04,15.695" /><path
         id="path22"
         style="fill:#58565b;fill-opacity:1;fill-rule:nonzero;stroke:none"
         d="m 1864.23,425.266 c 0,13.777 -6.12,37.898 -32.54,37.898 -24.88,0 -34.84,-22.59 -36.37,-37.898 z m -68.53,-39.817 c 1.92,-24.504 25.65,-35.984 52.84,-35.984 19.9,0 35.98,2.676 51.67,8.035 l 7.66,-39.434 c -19.14,-8.039 -42.49,-11.867 -67.76,-11.867 -63.55,0 -99.92,36.754 -99.92,95.711 0,47.469 29.86,99.922 94.56,99.922 60.49,0 83.46,-47.09 83.46,-93.414 0,-9.957 -1.15,-18.762 -1.92,-23.355 l -120.59,0.386" /><path
         id="path24"
         style="fill:#58565b;fill-opacity:1;fill-rule:nonzero;stroke:none"
         d="m 2066.36,425.266 c 0,13.777 -6.12,37.898 -32.54,37.898 -24.88,0 -34.84,-22.59 -36.36,-37.898 z m -68.52,-39.817 c 1.91,-24.504 25.65,-35.984 52.83,-35.984 19.91,0 35.99,2.676 51.68,8.035 l 7.65,-39.434 c -19.14,-8.039 -42.49,-11.867 -67.75,-11.867 -63.55,0 -99.93,36.754 -99.93,95.711 0,47.469 29.87,99.922 94.56,99.922 60.49,0 83.46,-47.09 83.46,-93.414 0,-9.957 -1.15,-18.762 -1.91,-23.355 l -120.59,0.386" /><path
         id="path26"
         style="fill:#58565b;fill-opacity:1;fill-rule:nonzero;stroke:none"
         d="m 2155.19,581.84 h 58.18 V 310.027 h -58.18 V 581.84" /><path
         id="path28"
         style="fill:#58565b;fill-opacity:1;fill-rule:nonzero;stroke:none"
         d="m 2400.58,314.625 c -10.34,-4.977 -29.87,-8.805 -52.07,-8.805 -60.49,0 -99.15,37.133 -99.15,96.09 0,54.746 37.52,99.535 107.19,99.535 15.32,0 32.16,-2.679 44.41,-7.273 l -9.19,-43.258 c -6.89,3.063 -17.22,5.742 -32.54,5.742 -30.63,0 -50.53,-21.82 -50.15,-52.453 0,-34.453 22.97,-52.824 51.3,-52.824 13.78,0 24.5,2.293 33.31,6.121 l 6.89,-42.875" /><path
         id="path30"
         style="fill:#58565b;fill-opacity:1;fill-rule:nonzero;stroke:none"
         d="m 2515.81,347.551 c 22.98,0 37.14,22.586 37.14,56.273 0,27.563 -10.72,55.895 -37.14,55.895 -27.56,0 -38.28,-28.332 -38.28,-56.278 0,-31.777 13.4,-55.89 37.9,-55.89 z m -1.14,-41.731 c -54.75,0 -96.86,35.989 -96.86,96.469 0,60.488 39.81,99.156 100.31,99.156 57.04,0 95.32,-39.429 95.32,-96.09 0,-68.144 -48.63,-99.535 -98.39,-99.535 h -0.38" /><path
         id="path32"
         style="fill:#58565b;fill-opacity:1;fill-rule:nonzero;stroke:none"
         d="m 2737.85,429.859 v -38.668 h -100.3 v 38.668 h 100.3" /><path
         id="path34"
         style="fill:#58565b;fill-opacity:1;fill-rule:nonzero;stroke:none"
         d="m 2824.76,519.059 h -69.68 v 49 h 198.31 v -49 h -70.44 V 310.027 h -58.19 v 209.032" /><path
         id="path36"
         style="fill:#58565b;fill-opacity:1;fill-rule:nonzero;stroke:none"
         d="m 3065.56,425.266 c 0,13.777 -6.13,37.898 -32.54,37.898 -24.89,0 -34.84,-22.59 -36.37,-37.898 z m -68.53,-39.817 c 1.92,-24.504 25.66,-35.984 52.83,-35.984 19.91,0 35.99,2.676 51.68,8.035 l 7.66,-39.434 c -19.14,-8.039 -42.49,-11.867 -67.76,-11.867 -63.55,0 -99.92,36.754 -99.92,95.711 0,47.469 29.86,99.922 94.56,99.922 60.49,0 83.46,-47.09 83.46,-93.414 0,-9.957 -1.15,-18.762 -1.91,-23.355 l -120.6,0.386" /><path
         id="path38"
         style="fill:#58565b;fill-opacity:1;fill-rule:nonzero;stroke:none"
         d="m 3212.57,417.988 h 0.76 c 4.22,8.043 8.81,15.7 13.41,22.586 l 37.9,56.66 h 70.06 l -67,-75.796 76.57,-111.411 h -71.59 l -45.56,76.95 -14.55,-18.758 v -58.192 h -58.19 V 581.84 h 58.19 V 417.988" /><path
         id="path40"
         style="fill:#58565b;fill-opacity:1;fill-rule:nonzero;stroke:none"
         d="m 3366.07,437.516 c 0,23.347 -0.76,42.875 -1.52,59.718 h 50.53 l 2.68,-26.035 h 1.15 c 7.65,12.254 26.41,30.246 57.81,30.246 38.28,0 66.99,-25.648 66.99,-80.777 V 310.027 h -58.19 v 103.75 c 0,24.118 -8.42,40.578 -29.48,40.578 -16.08,0 -25.65,-11.097 -29.86,-21.82 -1.53,-3.828 -1.91,-9.183 -1.91,-14.547 V 310.027 h -58.2 v 127.489" /><path
         id="path42"
         style="fill:#58565b;fill-opacity:1;fill-rule:nonzero;stroke:none"
         d="m 3590.42,310.027 v 187.207 h 58.19 V 310.027 Z m 28.71,211.711 c -19.52,0 -32.16,13.782 -32.16,31.004 0,17.613 13.02,31.012 32.93,31.012 19.9,0 32.16,-13.399 32.54,-31.012 0,-17.222 -12.64,-31.004 -32.92,-31.004 h -0.39" /><path
         id="path44"
         style="fill:#58565b;fill-opacity:1;fill-rule:nonzero;stroke:none"
         d="m 3753.51,417.988 h 0.76 c 4.22,8.043 8.81,15.7 13.41,22.586 l 37.9,56.66 h 70.05 l -67,-75.796 76.58,-111.411 h -71.6 l -45.55,76.95 -14.55,-18.758 v -58.192 h -58.2 V 581.84 h 58.2 V 417.988" /><path
         id="path46"
         style="fill:#58565b;fill-opacity:1;fill-rule:nonzero;stroke:none"
         d="m 3961,417.988 h 0.76 c 4.22,8.043 8.81,15.7 13.41,22.586 l 37.9,56.66 h 70.06 l -67.01,-75.796 76.58,-111.411 h -71.6 l -45.55,76.95 -14.55,-18.758 v -58.192 h -58.2 V 581.84 H 3961 V 417.988" /><path
         id="path48"
         style="fill:#58565b;fill-opacity:1;fill-rule:nonzero;stroke:none"
         d="m 4314.73,419.902 -16.08,54.746 c -4.21,15.313 -8.81,34.84 -12.63,49.766 h -1.15 c -3.44,-15.312 -7.65,-34.836 -11.48,-49.766 l -15.7,-54.746 z m -65.46,-43.64 -18,-66.235 h -60.49 l 78.87,258.032 h 76.18 l 80.4,-258.032 h -62.78 l -19.91,66.235 h -74.27" /><path
         id="path50"
         style="fill:#58565b;fill-opacity:1;fill-rule:nonzero;stroke:none"
         d="m 4421.54,294.719 81.93,277.551 h 38.67 l -81.93,-277.551 h -38.67" /><path
         id="path52"
         style="fill:#58565b;fill-opacity:1;fill-rule:nonzero;stroke:none"
         d="m 4569.32,369.75 c 15.31,-8.035 39.81,-16.078 64.7,-16.078 26.8,0 40.96,11.101 40.96,28.332 0,15.695 -12.25,25.266 -43.26,35.984 -42.87,15.313 -71.2,39.047 -71.2,76.95 0,44.027 37.13,77.332 97.61,77.332 29.49,0 50.54,-5.743 65.85,-13.016 l -13.01,-46.703 c -9.95,4.972 -28.71,12.25 -53.6,12.25 -25.26,0 -37.52,-11.871 -37.52,-24.883 0,-16.465 14.17,-23.742 47.86,-36.754 45.55,-16.848 66.61,-40.582 66.61,-77.336 0,-43.262 -32.92,-80.008 -103.74,-80.008 -29.49,0 -58.58,8.035 -73.13,16.078 l 11.87,47.852" /><path
         id="path54"
         style="fill:#ffffff;fill-opacity:1;fill-rule:nonzero;stroke:none"
         d="m 825.645,566.758 c 0.121,-3.906 0.183,-7.828 0.183,-11.758 0,-212.633 -179.269,-385 -400.418,-385 -221.14,0 -400.4139,172.367 -400.4139,385 0,5.012 0.0977,9.996 0.293,14.961 l 800.3559,-3.203" /><path
         id="path56"
         style="fill:#ffffff;fill-opacity:1;fill-rule:nonzero;stroke:none"
         d="M 802.496,587.504 C 802.496,464.617 702.875,365 580,365 457.113,365 357.496,464.617 357.496,587.504 357.496,710.383 457.113,810 580,810 702.875,810 802.496,710.383 802.496,587.504" /><path
         id="path58"
         style="fill:#f3661a;fill-opacity:1;fill-rule:nonzero;stroke:none"
         d="m 1099.17,760 c 0,-69.031 -55.97,-125 -125.006,-125 -69.035,0 -125,55.969 -125,125 0,69.031 55.965,125 125,125 69.036,0 125.006,-55.969 125.006,-125" /><path
         id="path60"
         style="fill:#ffffff;fill-opacity:1;fill-rule:nonzero;stroke:none"
         d="M 825.836,555.367 H 25.2891 v 15.895 H 825.836 v -15.895" /></g></g></svg>